<svg width="20" height="20" xmlns="http://www.w3.org/2000/svg"><path d="M10 20a2.19 2.19 0 01-2.188-2.188v-.636a7.428 7.428 0 01-1.339-.555l-.45.45c-.414.413-.963.64-1.547.64a2.173 2.173 0 01-1.547-.64 2.19 2.19 0 010-3.093l.45-.45a7.432 7.432 0 01-.555-1.34h-.636a2.173 2.173 0 01-1.547-.641A2.173 2.173 0 010 10a2.19 2.19 0 012.188-2.188h.636c.141-.463.327-.91.555-1.339l-.45-.45a2.173 2.173 0 01-.64-1.547c0-.585.227-1.134.64-1.547a2.19 2.19 0 013.093 0l.451.45a7.431 7.431 0 011.34-.555v-.636c0-.585.227-1.134.64-1.547a2.173 2.173 0 011.983-.598 2.194 2.194 0 011.752 2.144v.637c.463.141.91.327 1.339.555l.45-.45c.414-.413.963-.64 1.547-.64.585 0 1.134.227 1.547.64a2.19 2.19 0 010 3.093l-.45.45c.228.43.414.877.555 1.34h.637c.584 0 1.133.228 1.546.641.413.414.641.963.641 1.547a2.19 2.19 0 01-2.188 2.188h-.636c-.141.463-.327.91-.555 1.339l.45.45c.413.414.64.963.64 1.547a2.182 2.182 0 01-2.188 2.187 2.18 2.18 0 01-1.545-.64l-.451-.45a7.431 7.431 0 01-1.34.555v.637c0 .584-.227 1.133-.64 1.546a2.179 2.179 0 01-1.11.597h-.001c-.144.03-.29.044-.436.044zm-3.63-4.785c.114 0 .228.03.33.094a6.195 6.195 0 001.879.779.625.625 0 01.483.609v1.116a.939.939 0 001.876 0v-1.117c0-.29.2-.543.483-.608a6.195 6.195 0 001.879-.779.625.625 0 01.772.089l.79.79a.939.939 0 001.6-.664.93.93 0 00-.275-.663l-.79-.789a.625.625 0 01-.088-.772 6.195 6.195 0 00.779-1.879.625.625 0 01.608-.483h1.116a.939.939 0 000-1.876h-1.116c-.29 0-.543-.2-.608-.483a6.194 6.194 0 00-.779-1.879.625.625 0 01.089-.772l.79-.79a.939.939 0 00-.664-1.6.931.931 0 00-.663.275l-.789.79a.625.625 0 01-.772.088 6.195 6.195 0 00-1.879-.779.625.625 0 01-.483-.608V2.188A.94.94 0 0010 1.25a.931.931 0 00-.663.275.931.931 0 00-.274.663v1.116c0 .29-.201.543-.484.608a6.195 6.195 0 00-1.879.779.625.625 0 01-.772-.089l-.79-.79a.939.939 0 00-1.6.664c0 .25.098.486.275.663l.79.789a.625.625 0 01.088.772 6.195 6.195 0 00-.779 1.879.625.625 0 01-.608.483H2.188a.939.939 0 000 1.876h1.116c.29 0 .543.2.608.483a6.2 6.2 0 00.779 1.879.625.625 0 01-.089.772l-.79.79a.939.939 0 00.664 1.6c.25 0 .486-.098.663-.275l.789-.79c.12-.12.28-.182.442-.182z"/><path d="M10 14.375A4.38 4.38 0 015.625 10a4.38 4.38 0 014.742-4.36c1.088.09 2.1.583 2.845 1.39A4.361 4.361 0 0114.375 10c0 1.105-.413 2.16-1.163 2.97A4.359 4.359 0 0110 14.376zm0-7.5A3.129 3.129 0 006.875 10a3.129 3.129 0 003.383 3.114A3.14 3.14 0 0013.125 10 3.14 3.14 0 0010 6.875z"/></svg>