<svg width="30" height="30" xmlns="http://www.w3.org/2000/svg"><path d="M20.333 8.796H17.99a.843.843 0 000 1.684h2.343c2.475 0 4.502 2.03 4.519 4.52 0 2.474-2.03 4.501-4.519 4.518H17.99a.842.842 0 100 1.685h2.349a6.237 6.237 0 004.377-1.833 6.177 6.177 0 001.82-4.376c-.022-3.418-2.805-6.198-6.203-6.198zm-8.379 0H9.605c-3.417.023-6.197 2.806-6.198 6.21.023 3.417 2.806 6.197 6.204 6.197h2.343a.839.839 0 00.842-.843.842.842 0 00-.842-.842H9.61c-2.475 0-4.502-2.03-4.519-4.519 0-2.474 2.03-4.501 4.519-4.518h2.343a.842.842 0 100-1.685z"/><path d="M17.99 14.157h-6.036a.842.842 0 100 1.685h6.036a.84.84 0 00.843-.842.842.842 0 00-.843-.843z"/></svg>